<?xml version="1.0" standalone="no"?><!DOCTYPE svg PUBLIC "-//W3C//DTD SVG 1.1//EN" "http://www.w3.org/Graphics/SVG/1.1/DTD/svg11.dtd"><svg class="icon" width="200px" height="200.00px" viewBox="0 0 1024 1024" version="1.1" xmlns="http://www.w3.org/2000/svg"><path d="M67.022044 830.773141V946.821977a12.799504 12.799504 0 0 0 20.991187 9.812953l49.491415-41.641053 126.03245-106.022558h671.419316c12.330189 0 22.271137-9.300973 22.271137-20.820527V83.452766c0-11.519554-9.940948-20.820527-22.228472-20.820526H89.037191c-12.287524 0-22.271137 9.300973-22.271137 20.820526v745.485779l0.17066 1.834596zM0.037973 83.452766C0.037973 37.459882 39.887096 0.17066 89.079856 0.17066h845.876556C984.149172 0.17066 1023.998295 37.459882 1023.998295 83.452766v704.698026c0 46.035549-39.849123 83.282106-89.041883 83.282107H285.509578L120.566636 1009.454217c-41.683718 28.500229-120.528663 20.052556-120.528663-70.055952v-105.809233c-0.08533-1.27995 0-2.474571 0-3.754521V83.452766z" fill="#4081F8" stroke="#4081F8" fill-opacity=".45" /><path d="M362.519927 274.421366h32.76673c8.703663 17.407325 16.383365 35.326631 23.551088 53.757917l48.126135-17.919306c-5.119802-11.263564-10.751583-23.551087-17.407326-35.838611h60.413659V226.295231H384.023094c3.583861-9.727623 7.167722-19.967226 10.751583-30.71881L344.088641 184.312858c-13.311484 43.518314-35.838611 84.476727-67.581381 123.387219l45.054254 29.182869c14.847425-18.943266 28.670889-39.934453 40.958413-62.46158z m212.983747 0h40.446433c11.263564 20.479206 21.503167 41.470393 30.718809 62.97356l47.614155-17.919306a428.100744 428.100744 0 0 0-23.551087-45.054254h72.189203V226.295231h-144.378406c3.583861-9.215643 7.167722-19.455246 10.751584-30.206829l-50.686036-11.263564a305.012181 305.012181 0 0 1-55.293858 102.908012l44.542274 28.158909c9.727623-12.799504 18.943266-26.622968 27.646929-41.470393z m96.25227 217.079588h-322.547501v169.977414h51.709996v-17.919306h219.127509v17.919306h51.709996V491.500954z m-270.837505 103.931973v-55.805838h219.127509v55.805838H400.918439z m-11.263563-162.297711v22.527127h242.678596v-19.967226c28.158909 14.335445 58.365738 28.158909 90.620488 40.446433l26.110989-46.590195c-83.964746-28.670889-157.68989-67.581381-221.68741-116.731477h-34.814651c-57.853758 45.054254-130.554941 82.428806-217.591568 113.147616l26.110988 46.590194a1020.973771 1020.973771 0 0 0 88.572568-39.422472z m192.50454-26.622968h-144.890385c26.622968-16.383365 51.198016-34.302671 72.701182-52.733957 21.503167 18.431286 45.566234 36.350591 72.189203 52.733957z" fill="none" stroke="#4081F8" fill-opacity=".45" /></svg>