<?xml version="1.0" encoding="UTF-8"?>
<!DOCTYPE svg PUBLIC "-//W3C//DTD SVG 1.1//EN" "http://www.w3.org/Graphics/SVG/1.1/DTD/svg11.dtd">
<svg xmlns="http://www.w3.org/2000/svg" version="1.1" width="200px" height="200px" style="shape-rendering:geometricPrecision; text-rendering:geometricPrecision; image-rendering:optimizeQuality; fill-rule:evenodd; clip-rule:evenodd" xmlns:xlink="http://www.w3.org/1999/xlink">
<g><path style="opacity:0.979" fill="#7fb6f8" d="M 157.5,156.5 C 152.854,152.521 148.521,148.188 144.5,143.5C 168.499,115.614 171.999,85.2809 155,52.5C 149.546,43.3792 142.38,35.8792 133.5,30C 94.1956,21.0739 65.029,34.2406 46,69.5C 42.4921,77.6748 40.3254,86.1748 39.5,95C 39.5056,97.0326 39.8389,98.866 40.5,100.5C 40.2786,103.279 40.612,105.946 41.5,108.5C 41.4699,119.255 44.6366,129.255 51,138.5C 59.1596,151.326 70.3263,160.493 84.5,166C 100.876,167.614 116.042,164.114 130,155.5C 134.387,158.386 137.887,162.053 140.5,166.5C 131.385,170.152 121.885,172.152 112,172.5C 97.1331,170.218 82.2998,167.718 67.5,165C 33.3674,152.368 15.7007,127.868 14.5,91.5C 15.1165,58.0801 30.4498,34.2468 60.5,20C 88.2748,9.60495 113.942,13.2716 137.5,31C 171.302,46.1724 186.802,72.339 184,109.5C 180.829,128.523 171.996,144.19 157.5,156.5 Z"/></g>
<g><path style="opacity:0.999" fill="#3e8bf8" d="M 157.5,156.5 C 164.536,162.369 170.703,169.036 176,176.5C 176.672,185.492 172.506,189.325 163.5,188C 155.662,180.995 147.996,173.828 140.5,166.5C 137.887,162.053 134.387,158.386 130,155.5C 116.042,164.114 100.876,167.614 84.5,166C 70.3263,160.493 59.1596,151.326 51,138.5C 44.6366,129.255 41.4699,119.255 41.5,108.5C 49.7024,130.214 65.5358,141.88 89,143.5C 97.1551,142.5 99.6551,138.166 96.5,130.5C 95.5,129.667 94.5,128.833 93.5,128C 73.5453,127.356 60.5453,117.523 54.5,98.5C 51.3758,95.644 47.7092,94.8107 43.5,96C 41.8588,97.129 40.8588,98.629 40.5,100.5C 39.8389,98.866 39.5056,97.0326 39.5,95C 40.3254,86.1748 42.4921,77.6748 46,69.5C 65.029,34.2406 94.1956,21.0739 133.5,30C 142.38,35.8792 149.546,43.3792 155,52.5C 171.999,85.2809 168.499,115.614 144.5,143.5C 148.521,148.188 152.854,152.521 157.5,156.5 Z"/></g>
<g><path style="opacity:1" fill="#fbfcfe" d="M 41.5,108.5 C 40.612,105.946 40.2786,103.279 40.5,100.5C 40.8588,98.629 41.8588,97.129 43.5,96C 47.7092,94.8107 51.3758,95.644 54.5,98.5C 60.5453,117.523 73.5453,127.356 93.5,128C 94.5,128.833 95.5,129.667 96.5,130.5C 99.6551,138.166 97.1551,142.5 89,143.5C 65.5358,141.88 49.7024,130.214 41.5,108.5 Z"/></g>
</svg>
